<svg id="lgoT_A" data-name="lgoT+A" xmlns="http://www.w3.org/2000/svg" width="107.793" height="108" viewBox="0 0 107.793 108">
  <path id="Path_1" data-name="Path 1" d="M53.9,27.76,42.553,17.409H13.5L8.914,12.823l-5,5L0,13.911l5-5-5-5L3.909,0l5,5L13.492.411H49.307L53.893,5,58.479.411H94.293L98.879,5l5-5,3.909,3.909-5,5,5,5-3.917,3.917-5-5.012L94.3,17.4H65.248ZM14.321,15.409h29l10.572,9.644,10.572-9.644H93.472l5.407-5.43,5,5.012,1.088-1.088-5-5,5-5-1.088-1.088-5,5L93.472,2.411H59.308L53.893,7.826,48.478,2.411H14.321L8.906,7.826l-5-5-1.08,1.08,5,5-5,5L3.917,14.99l5-5Z" fill="#057682"/>
  <path id="Path_2" data-name="Path 2" d="M175.4,70.708l-9.857-8.883H136.36l-4.86-4.974,4.982-4.951h32.833l6.077,6.054,6.077-6.054h32.863l4.966,4.966-4.966,4.966H185.248ZM137.2,59.825h29.106l9.089,8.184,9.089-8.184H213.51l2.966-2.966-2.966-2.966H182.3l-6.9,6.875-6.9-6.875H137.318l-3,2.974Z" transform="translate(-121.499 -47.953)" fill="#057682"/>
  <path id="Path_3" data-name="Path 3" d="M266.6,169.3" transform="translate(-246.324 -156.424)" fill="#057682"/>
  <path id="Path_4" data-name="Path 4" d="M233.977,109.481l7.529-7.081h30.422l1.126,1.126-1.126,1.126H242.4l-8.419,7.91-8.427-7.91H196.01l-1.11-1.141,1.126-1.11H226.44Z" transform="translate(-180.077 -94.612)" fill="#057682"/>
  <path id="Path_5" data-name="Path 5" d="M575.105,381.1l-5-5-5,5-3.917-3.917,5.012-5-4.594-4.579V311.794l4.586-4.586-7.5-7.5,3.909-3.909,7.5,7.5,7.5-7.5,3.909,3.909-7.5,7.5,4.587,4.586V367.6l-4.587,4.586,5,5Zm-11.081-3.909,1.087,1.088,5-5,5,5,1.088-1.088-5-5,5.415-5.415V312.623l-5.415-5.415,7.5-7.5-1.088-1.088-7.5,7.5-7.5-7.5-1.087,1.088,7.5,7.5-5.415,5.415v54.151l5.43,5.408Z" transform="translate(-516.208 -273.096)" fill="#057682"/>
  <path id="Path_6" data-name="Path 6" d="M648.367,522.907,643.4,517.94V464.96l4.974-4.86,4.951,4.982V517.94Zm-2.966-5.8,2.966,2.966,2.966-2.966v-51.2l-2.974-3-2.951,2.883v51.315Z" transform="translate(-594.466 -424.901)" fill="#057682"/>
  <path id="Path_7" data-name="Path 7" d="M656.6,595.3" transform="translate(-606.662 -549.937)" fill="#057682"/>
  <path id="Path_8" data-name="Path 8" d="M693.9,524.61l1.133-1.11,1.111,1.126v50.911l-1.118,1.125-1.126-1.125Z" transform="translate(-641.125 -483.479)" fill="#057682"/>
  <path id="Path_9" data-name="Path 9" d="M462.5,781.49l2.5,2.5-5,5,3.917,3.91,8.914-8.907-3.947-3.955V742.5l-1-1-1,1v38.362L470,783.992l-6.084,6.077-1.088-1.08,5-5-3.909-3.917Z" transform="translate(-425.015 -684.899)" fill="#057682"/>
  <path id="Path_10" data-name="Path 10" d="M799.021,781.49l-2.494,2.5,5,5-3.917,3.91-8.906-8.907,3.947-3.955V742.5l1-1,1,1v38.362l-3.126,3.126,6.085,6.077,1.088-1.08-5-5,3.909-3.917Z" transform="translate(-728.715 -684.899)" fill="#057682"/>
</svg>
